<svg xmlns="http://www.w3.org/2000/svg" viewBox="0 0 80 80" width="80" height="80">
  <!-- Background circle -->
  <circle cx="40" cy="40" r="38" fill="#243742" opacity="0.1"/>

  <!-- Head -->
  <circle cx="40" cy="16" r="7" fill="#243742"/>

  <!-- Body / gi torso -->
  <path d="M28 28 Q26 34 24 50 L36 50 L36 38 L40 42 L44 38 L44 50 L56 50 Q54 34 52 28 L46 24 Q43 30 40 30 Q37 30 34 24 Z"
        fill="#243742"/>

  <!-- Belt (gold horizontal stripe across torso) -->
  <rect x="26" y="37" width="28" height="4.5" rx="2" fill="#c8a020"/>

  <!-- Left arm -->
  <path d="M28 30 Q20 35 18 44 Q22 46 24 45 Q25 38 30 34 Z" fill="#243742"/>

  <!-- Right arm (raised / punching) -->
  <path d="M52 30 Q60 24 64 30 Q62 35 60 36 Q56 32 50 34 Z" fill="#243742"/>

  <!-- Fist -->
  <rect x="60" y="29" width="9" height="7" rx="3" fill="#243742"/>

  <!-- Left leg -->
  <path d="M33 50 L30 68 L37 68 L38 53 Z" fill="#243742"/>

  <!-- Right leg -->
  <path d="M47 50 L50 68 L43 68 L42 53 Z" fill="#243742"/>

  <!-- Belt knot -->
  <ellipse cx="40" cy="39.25" rx="4" ry="3" fill="#a07810"/>
</svg>
